<?xml version="1.0" encoding="UTF-8"?>
<svg id="Layer_1" data-name="Layer 1" xmlns="http://www.w3.org/2000/svg" viewBox="0 0 150 150">
  <defs>
    <style>
      .cls-1 {
        font-family: Poppins-Light, Poppins;
        font-size: 7.66px;
        font-weight: 300;
      }

      .cls-1, .cls-2 {
        fill: #fff;
      }

      .cls-2 {
        stroke-width: 0px;
      }
    </style>
  </defs>
  <g>
    <path class="cls-2" d="m42.89,66.37v16.83c-4.08-.63-7.2-4.16-7.2-8.41s3.12-7.78,7.2-8.41Z"/>
    <path class="cls-2" d="m8.59,49.61v33.74c1.03-.2,2.99-.72,4.88-2.25,2.69-2.17,3.54-4.98,3.79-5.98v-9.06c3,3.47,6,6.94,9,10.41,1.75-3.06,4.64-7.22,9.19-11.12,2.72-2.33,5.38-4,7.65-5.21v-10.62c-2.72,1.41-6.22,3.57-9.77,6.82-3.19,2.92-5.47,5.85-7.07,8.23-1.27-2.36-3.66-6.06-7.78-9.45-3.75-3.09-7.46-4.69-9.9-5.53Z"/>
  </g>
  <path class="cls-2" d="m46.49,65.98c.82-1.76,1.94-3.1,3.36-4.03,1.42-.93,3.02-1.39,4.79-1.39,1.48,0,2.75.3,3.83.91,1.07.6,1.89,1.43,2.46,2.48v-3.1h8.9v22.72h-8.9v-3.1c-.56,1.05-1.38,1.87-2.46,2.48-1.07.6-2.35.91-3.83.91-1.77,0-3.37-.46-4.79-1.39-1.42-.93-2.54-2.27-3.36-4.03-.82-1.76-1.23-3.83-1.23-6.22s.41-4.46,1.23-6.22Zm13.52,3.4c-.62-.67-1.41-1.01-2.38-1.01s-1.76.34-2.38,1.01c-.62.67-.93,1.61-.93,2.82s.31,2.15.93,2.82c.62.67,1.41,1.01,2.38,1.01s1.76-.34,2.38-1.01c.62-.67.93-1.61.93-2.82s-.31-2.15-.93-2.82Z"/>
  <rect class="cls-2" x="73.87" y="60.84" width="8.94" height="22.72"/>
  <path class="cls-2" d="m100.98,75.95v7.61h-3.38c-6.23,0-9.35-3.1-9.35-9.31v-5.96h-2.82v-7.45h2.82v-5.48h8.94v5.48h3.71v7.45h-3.71v6.12c0,.54.13.93.38,1.17.25.24.68.36,1.27.36h2.14Z"/>
  <path class="cls-2" d="m116.69,61.87c1.32-.79,2.69-1.19,4.11-1.19v9.55h-2.54c-1.69,0-2.93.3-3.73.89-.79.59-1.19,1.64-1.19,3.14v9.31h-8.94v-22.72h8.94v4.19c.91-1.32,2.03-2.37,3.34-3.16Z"/>
  <path class="cls-2" d="m123.24,65.98c.82-1.76,1.94-3.1,3.36-4.03,1.42-.93,3.02-1.39,4.79-1.39,1.48,0,2.75.3,3.83.91,1.07.6,1.89,1.43,2.46,2.48v-3.1h8.9v22.72h-8.9v-3.1c-.56,1.05-1.38,1.87-2.46,2.48-1.07.6-2.35.91-3.83.91-1.77,0-3.37-.46-4.79-1.39-1.42-.93-2.54-2.27-3.36-4.03-.82-1.76-1.23-3.83-1.23-6.22s.41-4.46,1.23-6.22Zm13.52,3.4c-.62-.67-1.41-1.01-2.38-1.01s-1.76.34-2.38,1.01c-.62.67-.93,1.61-.93,2.82s.31,2.15.93,2.82c.62.67,1.41,1.01,2.38,1.01s1.76-.34,2.38-1.01c.62-.67.93-1.61.93-2.82s-.31-2.15-.93-2.82Z"/>
  <text class="cls-1" transform="translate(44.92 95.4)"><tspan x="0" y="0">Creative Marketing Agency</tspan></text>
  <circle class="cls-2" cx="78.41" cy="53.76" r="4.54"/>
</svg>